<svg width="122" height="122" viewBox="0 0 122 122" fill="none" xmlns="http://www.w3.org/2000/svg">
<circle cx="61" cy="61" r="61" fill="white" fill-opacity="0.7"/>
<path d="M67.6145 99.2168L61 105.831L54.3855 99.2168" stroke="#273029" stroke-opacity="0.3" stroke-width="2" stroke-linecap="round" stroke-linejoin="round"/>
<path d="M67.6145 22.7832L61 16.1687L54.3855 22.7832" stroke="#273029" stroke-opacity="0.3" stroke-width="2" stroke-linecap="round" stroke-linejoin="round"/>
<path d="M102.892 54.3855L109.506 61L102.892 67.6144" stroke="#273029" stroke-opacity="0.3" stroke-width="2" stroke-linecap="round" stroke-linejoin="round"/>
<path d="M19.1084 54.3855L12.494 61L19.1084 67.6144" stroke="#273029" stroke-opacity="0.3" stroke-width="2" stroke-linecap="round" stroke-linejoin="round"/>
<path d="M44.1941 57.8164H46.1159C46.6081 57.8164 47.0105 57.7305 47.323 57.5586C47.6433 57.3789 47.8816 57.1289 48.0378 56.8086C48.1941 56.4805 48.2722 56.0938 48.2722 55.6484C48.2722 55.3047 48.198 54.9883 48.0495 54.6992C47.9089 54.4102 47.6902 54.1797 47.3933 54.0078C47.0964 53.8281 46.7175 53.7383 46.2566 53.7383C45.9441 53.7383 45.6394 53.8047 45.3425 53.9375C45.0456 54.0625 44.7995 54.2422 44.6042 54.4766C44.4167 54.7109 44.323 54.9961 44.323 55.332H40.362C40.362 54.3633 40.6277 53.5352 41.1589 52.8477C41.698 52.1523 42.405 51.6211 43.28 51.2539C44.1628 50.8789 45.112 50.6914 46.1277 50.6914C47.3386 50.6914 48.4011 50.8789 49.3152 51.2539C50.2292 51.6211 50.9402 52.168 51.448 52.8945C51.9636 53.6133 52.2214 54.5039 52.2214 55.5664C52.2214 56.1523 52.0847 56.7031 51.8112 57.2188C51.5378 57.7344 51.155 58.1875 50.6628 58.5781C50.1706 58.9688 49.5925 59.2773 48.9284 59.5039C48.2722 59.7227 47.5534 59.832 46.7722 59.832H44.1941V57.8164ZM44.1941 60.7578V58.7891H46.7722C47.6237 58.7891 48.4011 58.8867 49.1042 59.082C49.8073 59.2695 50.4128 59.5508 50.9206 59.9258C51.4284 60.3008 51.8191 60.7656 52.0925 61.3203C52.3659 61.8672 52.5027 62.4961 52.5027 63.207C52.5027 64.0039 52.3425 64.7148 52.0222 65.3398C51.7019 65.9648 51.2527 66.4922 50.6745 66.9219C50.0964 67.3516 49.4206 67.6797 48.6472 67.9062C47.8737 68.125 47.0339 68.2344 46.1277 68.2344C45.4167 68.2344 44.7058 68.1406 43.9948 67.9531C43.2839 67.7578 42.6355 67.4609 42.0495 67.0625C41.4636 66.6562 40.9909 66.1406 40.6316 65.5156C40.28 64.8828 40.1042 64.1289 40.1042 63.2539H44.0652C44.0652 63.6133 44.1628 63.9414 44.3581 64.2383C44.5612 64.5273 44.8308 64.7578 45.1667 64.9297C45.5027 65.1016 45.8659 65.1875 46.2566 65.1875C46.7409 65.1875 47.1511 65.0977 47.487 64.918C47.8308 64.7305 48.0925 64.4805 48.2722 64.168C48.4519 63.8555 48.5417 63.5078 48.5417 63.125C48.5417 62.5469 48.4441 62.0859 48.2487 61.7422C48.0612 61.3984 47.7839 61.1484 47.4167 60.9922C47.0573 60.8359 46.6237 60.7578 46.1159 60.7578H44.1941ZM63.4128 50.6914H64.0456V53.7969H63.8347C63.0769 53.7969 62.3659 53.9023 61.7019 54.1133C61.0456 54.3242 60.4675 54.6445 59.9675 55.0742C59.4753 55.4961 59.0886 56.0312 58.8073 56.6797C58.5339 57.3281 58.3972 58.0898 58.3972 58.9648V61.9531C58.3972 62.5 58.4441 62.9766 58.5378 63.3828C58.6316 63.7891 58.7722 64.125 58.9597 64.3906C59.1472 64.6562 59.3777 64.8555 59.6511 64.9883C59.9323 65.1211 60.2566 65.1875 60.6237 65.1875C60.9284 65.1875 61.2097 65.1172 61.4675 64.9766C61.7253 64.8359 61.948 64.6367 62.1355 64.3789C62.3308 64.1211 62.4792 63.8203 62.5808 63.4766C62.6823 63.1328 62.7331 62.7578 62.7331 62.3516C62.7331 61.9141 62.6784 61.5195 62.5691 61.168C62.4597 60.8164 62.3034 60.5195 62.1003 60.2773C61.905 60.0273 61.6667 59.8398 61.3855 59.7148C61.112 59.582 60.8112 59.5156 60.4831 59.5156C59.9831 59.5156 59.5573 59.6289 59.2058 59.8555C58.862 60.0742 58.6003 60.3555 58.4206 60.6992C58.2487 61.043 58.1628 61.3906 58.1628 61.7422L57.2136 60.7812C57.198 60.3125 57.2878 59.8281 57.4831 59.3281C57.6784 58.8281 57.9714 58.3633 58.362 57.9336C58.7527 57.5039 59.2409 57.1562 59.8269 56.8906C60.4128 56.625 61.0925 56.4922 61.8659 56.4922C62.6472 56.4922 63.3347 56.6406 63.9284 56.9375C64.53 57.2344 65.0339 57.6484 65.4402 58.1797C65.8542 58.7109 66.1667 59.332 66.3777 60.043C66.5886 60.7539 66.6941 61.5234 66.6941 62.3516C66.6941 63.1875 66.5456 63.9648 66.2487 64.6836C65.9597 65.3945 65.5495 66.0156 65.0183 66.5469C64.487 67.0781 63.8581 67.4922 63.1316 67.7891C62.405 68.0859 61.6042 68.2344 60.7292 68.2344C59.8308 68.2344 58.9987 68.082 58.2331 67.7773C57.4753 67.4648 56.8112 67.0156 56.2409 66.4297C55.6784 65.8359 55.237 65.1133 54.9167 64.2617C54.6042 63.4102 54.448 62.4453 54.448 61.3672V59.9258C54.448 58.4648 54.6862 57.1641 55.1628 56.0234C55.6472 54.8828 56.3034 53.918 57.1316 53.1289C57.9675 52.332 58.9245 51.7266 60.0027 51.3125C61.0808 50.8984 62.2175 50.6914 63.4128 50.6914ZM80.2878 57.9102V61.0273C80.2878 62.2539 80.1433 63.3203 79.8542 64.2266C79.573 65.1328 79.1667 65.8828 78.6355 66.4766C78.112 67.0703 77.487 67.5117 76.7605 67.8008C76.0339 68.0898 75.2331 68.2344 74.3581 68.2344C73.655 68.2344 72.9987 68.1445 72.3894 67.9648C71.78 67.7773 71.2292 67.4961 70.737 67.1211C70.2527 66.7383 69.8347 66.2617 69.4831 65.6914C69.1316 65.1211 68.862 64.4492 68.6745 63.6758C68.487 62.8945 68.3933 62.0117 68.3933 61.0273V57.9102C68.3933 56.6758 68.5339 55.6094 68.8152 54.7109C69.1042 53.8047 69.5144 53.0547 70.0456 52.4609C70.5769 51.8672 71.2058 51.4258 71.9323 51.1367C72.6589 50.8477 73.4597 50.7031 74.3347 50.7031C75.0378 50.7031 75.6902 50.7969 76.2917 50.9844C76.9011 51.1641 77.4519 51.4453 77.9441 51.8281C78.4362 52.2031 78.8542 52.6758 79.198 53.2461C79.5495 53.8164 79.8191 54.4922 80.0066 55.2734C80.1941 56.0469 80.2878 56.9258 80.2878 57.9102ZM76.3386 61.5078V57.4062C76.3386 56.8594 76.3073 56.3828 76.2448 55.9766C76.1902 55.5703 76.1042 55.2266 75.987 54.9453C75.8777 54.6641 75.7409 54.4375 75.5769 54.2656C75.4128 54.0859 75.2253 53.957 75.0144 53.8789C74.8112 53.793 74.5847 53.75 74.3347 53.75C74.0222 53.75 73.7409 53.8164 73.4909 53.9492C73.2487 54.0742 73.0417 54.2773 72.8698 54.5586C72.698 54.8398 72.5652 55.2148 72.4714 55.6836C72.3855 56.1523 72.3425 56.7266 72.3425 57.4062V61.5078C72.3425 62.0625 72.3698 62.5469 72.4245 62.9609C72.487 63.3672 72.573 63.7148 72.6823 64.0039C72.7995 64.2852 72.9402 64.5156 73.1042 64.6953C73.2683 64.8672 73.4558 64.9922 73.6667 65.0703C73.8777 65.1484 74.1081 65.1875 74.3581 65.1875C74.6628 65.1875 74.9362 65.125 75.1784 65C75.4206 64.875 75.6277 64.6719 75.7995 64.3906C75.9792 64.1016 76.112 63.7227 76.198 63.2539C76.2917 62.7773 76.3386 62.1953 76.3386 61.5078Z" fill="#273029"/>
</svg>
